<mxfile host="Electron" modified="2024-12-06T04:47:40.610Z" agent="Mozilla/5.0 (Windows NT 10.0; Win64; x64) AppleWebKit/537.36 (KHTML, like Gecko) draw.io/21.1.2 Chrome/106.0.5249.199 Electron/21.4.3 Safari/537.36" etag="Pg3ZoZadFewGnvPDnN7y" version="21.1.2" type="device">
  <diagram name="Page-1" id="fZMe2K-6YeoEnEFsdv2S">
    <mxGraphModel dx="1098" dy="828" grid="1" gridSize="10" guides="1" tooltips="1" connect="1" arrows="1" fold="1" page="1" pageScale="1" pageWidth="850" pageHeight="1100" math="0" shadow="0">
      <root>
        <mxCell id="0" />
        <mxCell id="1" parent="0" />
        <mxCell id="Es5MNn7tH_MvHCjtq2p1-1" value="100 nF Capacitor" style="shape=table;startSize=30;container=1;collapsible=0;childLayout=tableLayout;fillColor=#81B5FD;fontStyle=1" vertex="1" parent="1">
          <mxGeometry x="188" y="280" width="475" height="110" as="geometry" />
        </mxCell>
        <mxCell id="Es5MNn7tH_MvHCjtq2p1-2" value="" style="shape=tableRow;horizontal=0;startSize=0;swimlaneHead=0;swimlaneBody=0;strokeColor=inherit;top=0;left=0;bottom=0;right=0;collapsible=0;dropTarget=0;fillColor=none;points=[[0,0.5],[1,0.5]];portConstraint=eastwest;" vertex="1" parent="Es5MNn7tH_MvHCjtq2p1-1">
          <mxGeometry y="30" width="475" height="40" as="geometry" />
        </mxCell>
        <mxCell id="Es5MNn7tH_MvHCjtq2p1-3" value="Part Size" style="shape=partialRectangle;html=1;whiteSpace=wrap;connectable=0;strokeColor=inherit;overflow=hidden;fillColor=#81B5FD;top=0;left=0;bottom=0;right=0;pointerEvents=1;fontStyle=1" vertex="1" parent="Es5MNn7tH_MvHCjtq2p1-2">
          <mxGeometry width="60" height="40" as="geometry">
            <mxRectangle width="60" height="40" as="alternateBounds" />
          </mxGeometry>
        </mxCell>
        <mxCell id="Es5MNn7tH_MvHCjtq2p1-4" value="Part Name" style="shape=partialRectangle;html=1;whiteSpace=wrap;connectable=0;strokeColor=inherit;overflow=hidden;fillColor=#81B5FD;top=0;left=0;bottom=0;right=0;pointerEvents=1;fontStyle=1" vertex="1" parent="Es5MNn7tH_MvHCjtq2p1-2">
          <mxGeometry x="60" width="202" height="40" as="geometry">
            <mxRectangle width="202" height="40" as="alternateBounds" />
          </mxGeometry>
        </mxCell>
        <mxCell id="Es5MNn7tH_MvHCjtq2p1-5" value="Part Rating" style="shape=partialRectangle;html=1;whiteSpace=wrap;connectable=0;strokeColor=inherit;overflow=hidden;fillColor=#81B5FD;top=0;left=0;bottom=0;right=0;pointerEvents=1;fontStyle=1" vertex="1" parent="Es5MNn7tH_MvHCjtq2p1-2">
          <mxGeometry x="262" width="100" height="40" as="geometry">
            <mxRectangle width="100" height="40" as="alternateBounds" />
          </mxGeometry>
        </mxCell>
        <mxCell id="Es5MNn7tH_MvHCjtq2p1-10" value="Needed Rating" style="shape=partialRectangle;html=1;whiteSpace=wrap;connectable=0;strokeColor=inherit;overflow=hidden;fillColor=#81B5FD;top=0;left=0;bottom=0;right=0;pointerEvents=1;fontStyle=1" vertex="1" parent="Es5MNn7tH_MvHCjtq2p1-2">
          <mxGeometry x="362" width="113" height="40" as="geometry">
            <mxRectangle width="113" height="40" as="alternateBounds" />
          </mxGeometry>
        </mxCell>
        <mxCell id="Es5MNn7tH_MvHCjtq2p1-6" value="" style="shape=tableRow;horizontal=0;startSize=0;swimlaneHead=0;swimlaneBody=0;strokeColor=inherit;top=0;left=0;bottom=0;right=0;collapsible=0;dropTarget=0;fillColor=none;points=[[0,0.5],[1,0.5]];portConstraint=eastwest;" vertex="1" parent="Es5MNn7tH_MvHCjtq2p1-1">
          <mxGeometry y="70" width="475" height="40" as="geometry" />
        </mxCell>
        <mxCell id="Es5MNn7tH_MvHCjtq2p1-7" value="0603" style="shape=partialRectangle;html=1;whiteSpace=wrap;connectable=0;overflow=hidden;top=0;left=0;bottom=0;right=0;pointerEvents=1;" vertex="1" parent="Es5MNn7tH_MvHCjtq2p1-6">
          <mxGeometry width="60" height="40" as="geometry">
            <mxRectangle width="60" height="40" as="alternateBounds" />
          </mxGeometry>
        </mxCell>
        <mxCell id="Es5MNn7tH_MvHCjtq2p1-8" value="CC0603KRX5R8BB104" style="shape=partialRectangle;html=1;whiteSpace=wrap;connectable=0;overflow=hidden;top=0;left=0;bottom=0;right=0;pointerEvents=1;" vertex="1" parent="Es5MNn7tH_MvHCjtq2p1-6">
          <mxGeometry x="60" width="202" height="40" as="geometry">
            <mxRectangle width="202" height="40" as="alternateBounds" />
          </mxGeometry>
        </mxCell>
        <mxCell id="Es5MNn7tH_MvHCjtq2p1-9" value="25V" style="shape=partialRectangle;html=1;whiteSpace=wrap;connectable=0;overflow=hidden;top=0;left=0;bottom=0;right=0;pointerEvents=1;" vertex="1" parent="Es5MNn7tH_MvHCjtq2p1-6">
          <mxGeometry x="262" width="100" height="40" as="geometry">
            <mxRectangle width="100" height="40" as="alternateBounds" />
          </mxGeometry>
        </mxCell>
        <mxCell id="Es5MNn7tH_MvHCjtq2p1-11" value="&amp;gt; 3V3" style="shape=partialRectangle;html=1;whiteSpace=wrap;connectable=0;overflow=hidden;top=0;left=0;bottom=0;right=0;pointerEvents=1;" vertex="1" parent="Es5MNn7tH_MvHCjtq2p1-6">
          <mxGeometry x="362" width="113" height="40" as="geometry">
            <mxRectangle width="113" height="40" as="alternateBounds" />
          </mxGeometry>
        </mxCell>
      </root>
    </mxGraphModel>
  </diagram>
</mxfile>
